<svg viewBox="0 0 341 286" fill="none" xmlns="http://www.w3.org/2000/svg">
<path d="M156.056 3.21094C143.923 8.94427 136.856 20.0109 136.723 33.3443C136.723 46.6776 145.523 59.8776 157.389 64.1443C162.989 66.1443 162.989 66.0109 156.456 86.6776C143.389 128.144 124.589 149.211 100.723 149.344C80.7228 149.344 61.9228 133.744 46.0561 103.878L39.6561 91.7443L45.3895 86.0109C62.3228 69.0776 50.5895 41.3443 26.5895 41.3443C2.58948 41.3443 -8.87719 69.0776 8.05614 86.1443C11.5228 89.6109 15.5228 92.1443 18.8561 92.8109L24.0561 94.1443L36.3228 158.011C42.9895 193.211 48.8561 224.011 49.3895 226.278L50.1895 230.678H170.056H289.923L290.856 225.611C291.389 222.944 297.256 192.144 303.923 157.344L316.056 94.1443L321.256 92.8109C328.723 91.0776 337.123 82.2776 339.256 74.1443C342.056 62.8109 337.656 51.4776 327.789 45.2109C315.656 37.6109 298.59 41.0776 291.389 52.8109C284.19 64.2776 285.523 76.8109 294.723 86.0109L300.323 91.7443L294.19 103.611C278.856 133.211 259.523 149.344 239.389 149.344C214.589 149.344 194.856 125.878 181.923 80.8109C179.789 73.6109 178.056 67.2109 178.056 66.8109C178.056 66.2776 180.189 65.0776 182.856 64.1443C194.589 59.8776 203.389 46.6776 203.389 33.3443C203.389 8.94427 177.923 -7.18907 156.056 3.21094Z" fill="url(#paint0_linear_1356_789)"/>
<path d="M51.7895 248.144C37.3895 255.211 37.6562 277.478 52.1895 283.478C58.7228 286.278 281.39 286.278 287.923 283.478C302.456 277.344 302.723 255.078 288.19 248.144C282.59 245.344 280.856 245.344 169.923 245.344C58.7228 245.344 57.3895 245.344 51.7895 248.144Z" fill="#AB4EE5"/>
<defs>
<linearGradient id="paint0_linear_1356_789" x1="170.043" y1="0" x2="170.043" y2="230.678" gradientUnits="userSpaceOnUse">
<stop stop-color="#3B54EA"/>
<stop offset="1" stop-color="#AB4EE5"/>
</linearGradient>
</defs>
</svg>
