<svg viewBox="0 0 231 82" fill="none" xmlns="http://www.w3.org/2000/svg">
<circle cx="40" cy="40" r="38" fill="#22262B" stroke="url(#paint0_linear_995_827)" stroke-width="4"/>
<rect x="29.8003" y="27.8" width="2.4" height="16" fill="#5753E9"/>
<rect x="29.8003" y="48.2" width="2.4" height="4" fill="#5753E9"/>
<rect x="36" y="42.2" width="2.4" height="20" fill="#6552E8"/>
<rect x="36" y="17.8" width="2.4" height="20" fill="#6552E8"/>
<rect x="42.1997" y="33.2" width="2.4" height="22" fill="#7351E7"/>
<rect x="42.1997" y="24.8" width="2.4" height="4" fill="#7351E7"/>
<rect x="48.3999" y="14.8" width="2.4" height="30" fill="#8550E7"/>
<rect x="48.3999" y="49.2" width="2.4" height="16" fill="#8550E7"/>
<rect x="54.6001" y="42.2" width="2.4" height="16" fill="#974FE6"/>
<rect x="54.6001" y="21.8" width="2.4" height="16" fill="#974FE6"/>
<rect x="60.8003" y="38.2" width="2.4" height="16" fill="#AB4EE5"/>
<rect x="60.8003" y="25.8" width="2.4" height="8" fill="#AB4EE5"/>
<rect x="17.3999" y="23.8" width="2.4" height="20" fill="#3B54EA"/>
<rect x="17.3999" y="48.2" width="2.4" height="8" fill="#3B54EA"/>
<rect x="23.6001" y="38.2" width="2.4" height="20" fill="#4A53E9"/>
<rect x="23.6001" y="21.8" width="2.4" height="12" fill="#4A53E9"/>
<path d="M99.136 36.936H115.312V42.984H99.136V36.936ZM99.712 50.76H118V57H91.984V23.4H117.376V29.64H99.712V50.76ZM129.851 51.72L130.043 42.6L142.091 31.176H151.019L139.451 42.936L135.563 46.104L129.851 51.72ZM123.659 57V21.384H131.147V57H123.659ZM142.907 57L134.171 46.152L138.875 40.344L151.979 57H142.907ZM166.557 57.384C163.805 57.384 161.357 56.808 159.213 55.656C157.101 54.504 155.421 52.936 154.173 50.952C152.957 48.936 152.349 46.648 152.349 44.088C152.349 41.496 152.957 39.208 154.173 37.224C155.421 35.208 157.101 33.64 159.213 32.52C161.357 31.368 163.805 30.792 166.557 30.792C169.277 30.792 171.709 31.368 173.853 32.52C175.997 33.64 177.677 35.192 178.893 37.176C180.109 39.16 180.717 41.464 180.717 44.088C180.717 46.648 180.109 48.936 178.893 50.952C177.677 52.936 175.997 54.504 173.853 55.656C171.709 56.808 169.277 57.384 166.557 57.384ZM166.557 51.24C167.805 51.24 168.925 50.952 169.917 50.376C170.909 49.8 171.693 48.984 172.269 47.928C172.845 46.84 173.133 45.56 173.133 44.088C173.133 42.584 172.845 41.304 172.269 40.248C171.693 39.192 170.909 38.376 169.917 37.8C168.925 37.224 167.805 36.936 166.557 36.936C165.309 36.936 164.189 37.224 163.197 37.8C162.205 38.376 161.405 39.192 160.797 40.248C160.221 41.304 159.933 42.584 159.933 44.088C159.933 45.56 160.221 46.84 160.797 47.928C161.405 48.984 162.205 49.8 163.197 50.376C164.189 50.952 165.309 51.24 166.557 51.24ZM186.634 57V30.6C186.634 27.688 187.498 25.368 189.226 23.64C190.954 21.88 193.418 21 196.618 21C197.706 21 198.746 21.112 199.738 21.336C200.762 21.56 201.626 21.912 202.33 22.392L200.362 27.816C199.946 27.528 199.482 27.304 198.97 27.144C198.458 26.984 197.914 26.904 197.338 26.904C196.25 26.904 195.402 27.224 194.794 27.864C194.218 28.472 193.93 29.4 193.93 30.648V33.048L194.122 36.264V57H186.634ZM182.65 37.512V31.752H200.554V37.512H182.65ZM208.017 66.696C206.673 66.696 205.345 66.488 204.033 66.072C202.721 65.656 201.649 65.08 200.817 64.344L203.553 59.016C204.129 59.528 204.785 59.928 205.521 60.216C206.289 60.504 207.041 60.648 207.777 60.648C208.833 60.648 209.665 60.392 210.273 59.88C210.913 59.4 211.489 58.584 212.001 57.432L213.345 54.264L213.921 53.448L223.185 31.176H230.385L218.721 58.584C217.889 60.664 216.929 62.296 215.841 63.48C214.785 64.664 213.601 65.496 212.289 65.976C211.009 66.456 209.585 66.696 208.017 66.696ZM212.433 58.008L200.913 31.176H208.641L217.569 52.776L212.433 58.008Z" fill="url(#paint1_linear_995_827)"/>
<defs>
<linearGradient id="paint0_linear_995_827" x1="0" y1="40" x2="80" y2="40" gradientUnits="userSpaceOnUse">
<stop stop-color="#3B54EA"/>
<stop offset="1" stop-color="#AB4EE5"/>
</linearGradient>
<linearGradient id="paint1_linear_995_827" x1="88" y1="40" x2="230" y2="40" gradientUnits="userSpaceOnUse">
<stop stop-color="#3B54EA"/>
<stop offset="1" stop-color="#AB4EE5"/>
</linearGradient>
</defs>
</svg>
