<svg viewBox="0 0 180 60" fill="none" xmlns="http://www.w3.org/2000/svg">
<circle cx="30" cy="30" r="28" fill="#22262B" stroke="url(#paint0_linear_186_702)" stroke-width="4"/>
<rect x="22.3501" y="20.85" width="1.8" height="12" fill="#5753E9"/>
<rect x="22.3501" y="36.15" width="1.8" height="3" fill="#5753E9"/>
<rect x="27" y="31.65" width="1.8" height="15" fill="#6552E8"/>
<rect x="27" y="13.35" width="1.8" height="15" fill="#6552E8"/>
<rect x="31.6499" y="24.9" width="1.8" height="16.5" fill="#7351E7"/>
<rect x="31.6499" y="18.6" width="1.8" height="3" fill="#7351E7"/>
<rect x="36.3" y="11.1" width="1.8" height="22.5" fill="#8550E7"/>
<rect x="36.3" y="36.9" width="1.8" height="12" fill="#8550E7"/>
<rect x="40.95" y="31.65" width="1.8" height="12" fill="#974FE6"/>
<rect x="40.95" y="16.35" width="1.8" height="12" fill="#974FE6"/>
<rect x="45.6001" y="28.65" width="1.8" height="12" fill="#AB4EE5"/>
<rect x="45.6001" y="19.35" width="1.8" height="6" fill="#AB4EE5"/>
<rect x="13.05" y="17.85" width="1.8" height="15" fill="#3B54EA"/>
<rect x="13.05" y="36.15" width="1.8" height="6" fill="#3B54EA"/>
<rect x="17.7" y="28.65" width="1.8" height="15" fill="#4A53E9"/>
<rect x="17.7" y="16.35" width="1.8" height="9" fill="#4A53E9"/>
<path d="M81.352 27.952H93.484V32.488H81.352V27.952ZM81.784 38.32H95.5V43H75.988V17.8H95.032V22.48H81.784V38.32ZM104.388 39.04L104.532 32.2L113.568 23.632H120.264L111.588 32.452L108.672 34.828L104.388 39.04ZM99.7443 43V16.288H105.36V43H99.7443ZM114.18 43L107.628 34.864L111.156 30.508L120.984 43H114.18ZM131.917 43.288C129.853 43.288 128.017 42.856 126.409 41.992C124.825 41.128 123.565 39.952 122.629 38.464C121.717 36.952 121.261 35.236 121.261 33.316C121.261 31.372 121.717 29.656 122.629 28.168C123.565 26.656 124.825 25.48 126.409 24.64C128.017 23.776 129.853 23.344 131.917 23.344C133.957 23.344 135.781 23.776 137.389 24.64C138.997 25.48 140.257 26.644 141.169 28.132C142.081 29.62 142.537 31.348 142.537 33.316C142.537 35.236 142.081 36.952 141.169 38.464C140.257 39.952 138.997 41.128 137.389 41.992C135.781 42.856 133.957 43.288 131.917 43.288ZM131.917 38.68C132.853 38.68 133.693 38.464 134.437 38.032C135.181 37.6 135.769 36.988 136.201 36.196C136.633 35.38 136.849 34.42 136.849 33.316C136.849 32.188 136.633 31.228 136.201 30.436C135.769 29.644 135.181 29.032 134.437 28.6C133.693 28.168 132.853 27.952 131.917 27.952C130.981 27.952 130.141 28.168 129.397 28.6C128.653 29.032 128.053 29.644 127.597 30.436C127.165 31.228 126.949 32.188 126.949 33.316C126.949 34.42 127.165 35.38 127.597 36.196C128.053 36.988 128.653 37.6 129.397 38.032C130.141 38.464 130.981 38.68 131.917 38.68ZM146.975 43V23.2C146.975 21.016 147.623 19.276 148.919 17.98C150.215 16.66 152.063 16 154.463 16C155.279 16 156.059 16.084 156.803 16.252C157.571 16.42 158.219 16.684 158.747 17.044L157.271 21.112C156.959 20.896 156.611 20.728 156.227 20.608C155.843 20.488 155.435 20.428 155.003 20.428C154.187 20.428 153.551 20.668 153.095 21.148C152.663 21.604 152.447 22.3 152.447 23.236V25.036L152.591 27.448V43H146.975ZM143.987 28.384V24.064H157.415V28.384H143.987ZM163.013 50.272C162.005 50.272 161.009 50.116 160.025 49.804C159.041 49.492 158.237 49.06 157.613 48.508L159.665 44.512C160.097 44.896 160.589 45.196 161.141 45.412C161.717 45.628 162.281 45.736 162.833 45.736C163.625 45.736 164.249 45.544 164.705 45.16C165.185 44.8 165.617 44.188 166.001 43.324L167.009 40.948L167.441 40.336L174.389 23.632H179.789L171.041 44.188C170.417 45.748 169.697 46.972 168.881 47.86C168.089 48.748 167.201 49.372 166.217 49.732C165.257 50.092 164.189 50.272 163.013 50.272ZM166.325 43.756L157.685 23.632H163.481L170.177 39.832L166.325 43.756Z" fill="url(#paint1_linear_186_702)"/>
<defs>
<linearGradient id="paint0_linear_186_702" x1="0" y1="30" x2="60" y2="30" gradientUnits="userSpaceOnUse">
<stop stop-color="#3B54EA"/>
<stop offset="1" stop-color="#AB4EE5"/>
</linearGradient>
<linearGradient id="paint1_linear_186_702" x1="73" y1="30" x2="180" y2="30" gradientUnits="userSpaceOnUse">
<stop stop-color="#3B54EA"/>
<stop offset="1" stop-color="#AB4EE5"/>
</linearGradient>
</defs>
</svg>
