<svg width="24" height="24" viewBox="0 0 24 24" fill="none" xmlns="http://www.w3.org/2000/svg">
<path d="M10.268 21C10.4435 21.304 10.696 21.5565 11 21.732C11.3041 21.9075 11.6489 21.9999 12 21.9999C12.3511 21.9999 12.6959 21.9075 13 21.732C13.304 21.5565 13.5565 21.304 13.732 21" stroke="#F2F2F2" stroke-width="2" stroke-linecap="round" stroke-linejoin="round"/>
<path d="M13.916 2.314C13.0135 2.00987 12.0515 1.92496 11.1097 2.06628C10.1678 2.2076 9.27317 2.57109 8.49966 3.12671C7.72614 3.68232 7.09599 4.41409 6.66133 5.2615C6.22667 6.10891 5.99998 7.04762 6 8C6 12.499 4.589 13.956 3.26 15.327C3.12957 15.4703 3.04361 15.6485 3.01256 15.8398C2.98151 16.0311 3.00672 16.2273 3.08511 16.4045C3.1635 16.5818 3.29171 16.7324 3.45413 16.8381C3.61656 16.9438 3.8062 17.0001 4 17H20C20.1938 17.0001 20.3834 16.9438 20.5459 16.8381C20.7083 16.7324 20.8365 16.5818 20.9149 16.4045C20.9933 16.2273 21.0185 16.0311 20.9874 15.8398C20.9564 15.6485 20.8704 15.4703 20.74 15.327C20.5342 15.1151 20.339 14.8931 20.155 14.662" stroke="#F2F2F2" stroke-width="2" stroke-linecap="round" stroke-linejoin="round"/>
<path d="M18 11C19.6569 11 21 9.65685 21 8C21 6.34315 19.6569 5 18 5C16.3431 5 15 6.34315 15 8C15 9.65685 16.3431 11 18 11Z" fill="url(#paint0_linear_373_974)" stroke="url(#paint1_linear_373_974)" stroke-width="2" stroke-linecap="round" stroke-linejoin="round"/>
<defs>
<linearGradient id="paint0_linear_373_974" x1="18" y1="5" x2="18" y2="11" gradientUnits="userSpaceOnUse">
<stop stop-color="#3B54EA"/>
<stop offset="1" stop-color="#AB4EE5"/>
</linearGradient>
<linearGradient id="paint1_linear_373_974" x1="18" y1="5" x2="18" y2="11" gradientUnits="userSpaceOnUse">
<stop stop-color="#3B54EA"/>
<stop offset="1" stop-color="#AB4EE5"/>
</linearGradient>
</defs>
</svg>
