<svg width="16" height="16" viewBox="0 0 16 16" fill="none" xmlns="http://www.w3.org/2000/svg">
<g clip-path="url(#clip0_70_343)">
<path d="M7.34467 1.87599C7.37324 1.72306 7.45439 1.58493 7.57407 1.48553C7.69375 1.38614 7.84443 1.33173 8 1.33173C8.15558 1.33173 8.30626 1.38614 8.42594 1.48553C8.54562 1.58493 8.62677 1.72306 8.65534 1.87599L9.356 5.58132C9.40577 5.84475 9.53379 6.08707 9.72336 6.27664C9.91293 6.46621 10.1552 6.59423 10.4187 6.64399L14.124 7.34466C14.2769 7.37322 14.4151 7.45437 14.5145 7.57405C14.6139 7.69374 14.6683 7.84441 14.6683 7.99999C14.6683 8.15557 14.6139 8.30624 14.5145 8.42592C14.4151 8.54561 14.2769 8.62676 14.124 8.65532L10.4187 9.35599C10.1552 9.40575 9.91293 9.53377 9.72336 9.72334C9.53379 9.91291 9.40577 10.1552 9.356 10.4187L8.65534 14.124C8.62677 14.2769 8.54562 14.415 8.42594 14.5144C8.30626 14.6138 8.15558 14.6683 8 14.6683C7.84443 14.6683 7.69375 14.6138 7.57407 14.5144C7.45439 14.415 7.37324 14.2769 7.34467 14.124L6.644 10.4187C6.59424 10.1552 6.46622 9.91291 6.27665 9.72334C6.08708 9.53377 5.84477 9.40575 5.58134 9.35599L1.876 8.65532C1.72307 8.62676 1.58495 8.54561 1.48555 8.42592C1.38615 8.30624 1.33174 8.15557 1.33174 7.99999C1.33174 7.84441 1.38615 7.69374 1.48555 7.57405C1.58495 7.45437 1.72307 7.37322 1.876 7.34466L5.58134 6.64399C5.84477 6.59423 6.08708 6.46621 6.27665 6.27664C6.46622 6.08707 6.59424 5.84475 6.644 5.58132L7.34467 1.87599Z" stroke="url(#paint0_linear_70_343)" stroke-width="2" stroke-linecap="round" stroke-linejoin="round"/>
<path d="M13.3333 1.33334V4.00001" stroke="url(#paint1_linear_70_343)" stroke-width="2" stroke-linecap="round" stroke-linejoin="round"/>
<path d="M14.6667 2.66666H12" stroke="url(#paint2_linear_70_343)" stroke-width="2" stroke-linecap="round" stroke-linejoin="round"/>
<path d="M2.66666 14.6667C3.40304 14.6667 3.99999 14.0697 3.99999 13.3333C3.99999 12.597 3.40304 12 2.66666 12C1.93028 12 1.33333 12.597 1.33333 13.3333C1.33333 14.0697 1.93028 14.6667 2.66666 14.6667Z" stroke="url(#paint3_linear_70_343)" stroke-width="2" stroke-linecap="round" stroke-linejoin="round"/>
</g>
<defs>
<linearGradient id="paint0_linear_70_343" x1="8" y1="1.33173" x2="8" y2="14.6683" gradientUnits="userSpaceOnUse">
<stop stop-color="#3B54EA"/>
<stop offset="1" stop-color="#AB4EE5"/>
</linearGradient>
<linearGradient id="paint1_linear_70_343" x1="13.8333" y1="1.33334" x2="13.8333" y2="4.00001" gradientUnits="userSpaceOnUse">
<stop stop-color="#3B54EA"/>
<stop offset="1" stop-color="#AB4EE5"/>
</linearGradient>
<linearGradient id="paint2_linear_70_343" x1="13.3333" y1="2.66666" x2="13.3333" y2="3.66666" gradientUnits="userSpaceOnUse">
<stop stop-color="#3B54EA"/>
<stop offset="1" stop-color="#AB4EE5"/>
</linearGradient>
<linearGradient id="paint3_linear_70_343" x1="2.66666" y1="12" x2="2.66666" y2="14.6667" gradientUnits="userSpaceOnUse">
<stop stop-color="#3B54EA"/>
<stop offset="1" stop-color="#AB4EE5"/>
</linearGradient>
<clipPath id="clip0_70_343">
<rect width="16" height="16" fill="white"/>
</clipPath>
</defs>
</svg>
