<svg width="70" height="70" viewBox="0 0 70 70" fill="none" xmlns="http://www.w3.org/2000/svg">
<path d="M5.8335 37.9166C7.38059 37.9166 8.86432 37.302 9.95829 36.208C11.0522 35.1141 11.6668 33.6303 11.6668 32.0833V20.4166C11.6668 18.8695 12.2814 17.3858 13.3754 16.2918C14.4693 15.1978 15.9531 14.5833 17.5002 14.5833C19.0473 14.5833 20.531 15.1978 21.625 16.2918C22.7189 17.3858 23.3335 18.8695 23.3335 20.4166V58.3332C23.3335 59.8803 23.9481 61.3641 25.042 62.458C26.136 63.552 27.6197 64.1666 29.1668 64.1666C30.7139 64.1666 32.1977 63.552 33.2916 62.458C34.3856 61.3641 35.0002 59.8803 35.0002 58.3332V11.6666C35.0002 10.1195 35.6147 8.63576 36.7087 7.5418C37.8027 6.44783 39.2864 5.83325 40.8335 5.83325C42.3806 5.83325 43.8643 6.44783 44.9583 7.5418C46.0522 8.63576 46.6668 10.1195 46.6668 11.6666V49.5832C46.6668 51.1303 47.2814 52.6141 48.3754 53.708C49.4693 54.802 50.9531 55.4166 52.5002 55.4166C54.0473 55.4166 55.531 54.802 56.6249 53.708C57.7189 52.6141 58.3335 51.1303 58.3335 49.5832V37.9166C58.3335 36.3695 58.9481 34.8858 60.042 33.7918C61.136 32.6978 62.6197 32.0833 64.1668 32.0833" stroke="url(#paint0_linear_113_210)" stroke-width="5" stroke-linecap="round" stroke-linejoin="round"/>
<defs>
<linearGradient id="paint0_linear_113_210" x1="35.0002" y1="5.83325" x2="35.0002" y2="64.1666" gradientUnits="userSpaceOnUse">
<stop stop-color="#3B54EA"/>
<stop offset="1" stop-color="#AB4EE5"/>
</linearGradient>
</defs>
</svg>
